<mxfile host="app.diagrams.net" modified="2024-03-14T23:27:57.407Z" agent="Mozilla/5.0 (Macintosh; Intel Mac OS X 10_15_7) AppleWebKit/537.36 (KHTML, like Gecko) Chrome/119.0.0.0 Safari/537.36" version="24.0.5" etag="-I_By7tT_seJgqIJCmY8" type="github">
  <diagram name="ページ1" id="w0lN0k3Da2YKYlmLff3g">
    <mxGraphModel>
      <root>
        <mxCell id="0" />
        <mxCell id="1" parent="0" />
      </root>
    </mxGraphModel>
  </diagram>
</mxfile>
